<svg xmlns="http://www.w3.org/2000/svg" viewBox="0 0 64 64" role="img" aria-labelledby="title">
  <title id="title">MorTide waves and crown app icon</title>
  <defs>
    <linearGradient id="bay" x1="10" x2="54" y1="8" y2="58" gradientUnits="userSpaceOnUse">
      <stop offset="0" stop-color="#163f46" />
      <stop offset="1" stop-color="#10262b" />
    </linearGradient>
    <linearGradient id="wave" x1="12" x2="52" y1="42" y2="42" gradientUnits="userSpaceOnUse">
      <stop offset="0" stop-color="#8ad6d1" />
      <stop offset="1" stop-color="#29a0b1" />
    </linearGradient>
    <linearGradient id="crown" x1="18" x2="46" y1="15" y2="32" gradientUnits="userSpaceOnUse">
      <stop offset="0" stop-color="#ffe28a" />
      <stop offset="1" stop-color="#f3b545" />
    </linearGradient>
  </defs>
  <rect width="64" height="64" rx="14" fill="url(#bay)" />
  <path
    d="M17 31.5 21.9 18l8.1 9 8.1-9L47 31.5H17Z"
    fill="url(#crown)"
    stroke="#fff2bf"
    stroke-linejoin="round"
    stroke-width="2.4"
  />
  <path d="M18 33h28" stroke="#f6c35b" stroke-linecap="round" stroke-width="5" />
  <circle cx="21.9" cy="18" r="2.6" fill="#fff2bf" />
  <circle cx="32" cy="27" r="2.4" fill="#fff2bf" />
  <circle cx="38.1" cy="18" r="2.6" fill="#fff2bf" />
  <path
    d="M10.5 42.5c5.5-5 10.7-5 16.2 0s10.7 5 16.2 0 10.7-5 16.2 0"
    fill="none"
    stroke="#ffffff"
    stroke-linecap="round"
    stroke-width="4.4"
  />
  <path
    d="M10.5 51c5.5-5 10.7-5 16.2 0s10.7 5 16.2 0 10.7-5 16.2 0"
    fill="none"
    stroke="url(#wave)"
    stroke-linecap="round"
    stroke-width="4.4"
  />
</svg>
